<svg width="256" height="256" viewBox="0 0 256 256" fill="none" xmlns="http://www.w3.org/2000/svg"><title>Tatamiq</title>
<path d="M119.656 63.4746C124.388 60.931 130.094 60.9779 134.784 63.599L190.824 94.9215C197.504 98.6551 200.514 106.65 197.951 113.85L178.179 169.377C176.905 172.953 174.376 175.947 171.059 177.803L134.078 198.497C129.366 201.134 123.626 201.169 118.881 198.592L80.5917 177.792C77.192 175.945 74.5952 172.911 73.2992 169.271L53.6397 114.059C51.0434 106.768 54.1663 98.6766 60.9933 95.0069L119.656 63.4746Z" fill="#A22000"/>
<path d="M133.754 175.149C129.368 177.682 123.963 177.693 119.566 175.178L39.1464 129.183C29.6348 123.743 29.6137 110.06 39.1085 104.591L121.035 57.3998C125.357 54.9104 130.67 54.8647 135.034 57.2793L216.678 102.452C226.339 107.797 226.465 121.615 216.905 127.135L133.754 175.149Z" fill="#FF4F00"/>
</svg>
