<svg width="1132" height="409" viewBox="0 0 1132 409" fill="none" xmlns="http://www.w3.org/2000/svg"><title>Tatamiq</title>
<path d="M151.656 139.975C156.388 137.431 162.094 137.478 166.784 140.099L222.824 171.421C229.504 175.155 232.514 183.15 229.951 190.35L210.179 245.877C208.905 249.453 206.376 252.447 203.059 254.303L166.078 274.997C161.366 277.634 155.626 277.669 150.881 275.092L112.592 254.292C109.192 252.445 106.595 249.411 105.299 245.771L85.6397 190.559C83.0434 183.268 86.1663 175.177 92.9933 171.507L151.656 139.975Z" fill="#A22000"/>
<path d="M165.754 251.649C161.368 254.182 155.963 254.193 151.566 251.678L71.1464 205.683C61.6348 200.243 61.6137 186.56 71.1085 181.091L153.035 133.9C157.357 131.41 162.67 131.365 167.034 133.779L248.678 178.952C258.339 184.297 258.465 198.115 248.905 203.635L165.754 251.649Z" fill="#FF4F00"/>
<path d="M378.2 287.2C367.667 287.2 359.533 284.2 353.8 278.2C348.2 272.2 345.4 263.733 345.4 252.8V196H325.8V178.2H329.8C334.6 178.2 338.4 176.733 341.2 173.8C344 170.867 345.4 167 345.4 162.2V153.4H364V178.2H388.2V196H364V252.2C364 255.8 364.533 258.933 365.6 261.6C366.8 264.267 368.733 266.4 371.4 268C374.067 269.467 377.6 270.2 382 270.2C382.933 270.2 384.067 270.133 385.4 270C386.867 269.867 388.2 269.733 389.4 269.6V286C387.667 286.4 385.733 286.667 383.6 286.8C381.467 287.067 379.667 287.2 378.2 287.2ZM443.93 288.4C436.863 288.4 430.596 287.133 425.13 284.6C419.796 281.933 415.596 278.333 412.53 273.8C409.463 269.133 407.93 263.8 407.93 257.8C407.93 252.067 409.13 246.933 411.53 242.4C414.063 237.733 417.93 233.8 423.13 230.6C428.463 227.4 435.13 225.133 443.13 223.8L483.13 217.2V232.8L447.33 238.8C440.396 240 435.33 242.2 432.13 245.4C429.063 248.6 427.53 252.533 427.53 257.2C427.53 261.6 429.263 265.267 432.73 268.2C436.33 271.133 440.796 272.6 446.13 272.6C452.93 272.6 458.796 271.2 463.73 268.4C468.796 265.467 472.73 261.533 475.53 256.6C478.463 251.667 479.93 246.2 479.93 240.2V212.8C479.93 206.933 477.73 202.2 473.33 198.6C469.063 194.867 463.396 193 456.33 193C450.196 193 444.73 194.6 439.93 197.8C435.263 200.867 431.796 205 429.53 210.2L413.33 201.8C415.33 196.867 418.53 192.467 422.93 188.6C427.33 184.6 432.463 181.467 438.33 179.2C444.196 176.933 450.33 175.8 456.73 175.8C464.996 175.8 472.263 177.4 478.53 180.6C484.796 183.667 489.663 188 493.13 193.6C496.73 199.067 498.53 205.467 498.53 212.8V286H480.33V265.6L483.73 266.8C481.463 271.067 478.396 274.8 474.53 278C470.663 281.2 466.13 283.733 460.93 285.6C455.73 287.467 450.063 288.4 443.93 288.4ZM569.216 287.2C558.682 287.2 550.549 284.2 544.816 278.2C539.216 272.2 536.416 263.733 536.416 252.8V196H516.816V178.2H520.816C525.616 178.2 529.416 176.733 532.216 173.8C535.016 170.867 536.416 167 536.416 162.2V153.4H555.016V178.2H579.216V196H555.016V252.2C555.016 255.8 555.549 258.933 556.616 261.6C557.816 264.267 559.749 266.4 562.416 268C565.082 269.467 568.616 270.2 573.016 270.2C573.949 270.2 575.082 270.133 576.416 270C577.882 269.867 579.216 269.733 580.416 269.6V286C578.682 286.4 576.749 286.667 574.616 286.8C572.482 287.067 570.682 287.2 569.216 287.2ZM634.945 288.4C627.879 288.4 621.612 287.133 616.145 284.6C610.812 281.933 606.612 278.333 603.545 273.8C600.479 269.133 598.945 263.8 598.945 257.8C598.945 252.067 600.145 246.933 602.545 242.4C605.079 237.733 608.945 233.8 614.145 230.6C619.479 227.4 626.145 225.133 634.145 223.8L674.145 217.2V232.8L638.345 238.8C631.412 240 626.345 242.2 623.145 245.4C620.079 248.6 618.545 252.533 618.545 257.2C618.545 261.6 620.279 265.267 623.745 268.2C627.345 271.133 631.812 272.6 637.145 272.6C643.945 272.6 649.812 271.2 654.745 268.4C659.812 265.467 663.745 261.533 666.545 256.6C669.479 251.667 670.945 246.2 670.945 240.2V212.8C670.945 206.933 668.745 202.2 664.345 198.6C660.079 194.867 654.412 193 647.345 193C641.212 193 635.745 194.6 630.945 197.8C626.279 200.867 622.812 205 620.545 210.2L604.345 201.8C606.345 196.867 609.545 192.467 613.945 188.6C618.345 184.6 623.479 181.467 629.345 179.2C635.212 176.933 641.345 175.8 647.745 175.8C656.012 175.8 663.279 177.4 669.545 180.6C675.812 183.667 680.679 188 684.145 193.6C687.745 199.067 689.545 205.467 689.545 212.8V286H671.345V265.6L674.745 266.8C672.479 271.067 669.412 274.8 665.545 278C661.679 281.2 657.145 283.733 651.945 285.6C646.745 287.467 641.079 288.4 634.945 288.4ZM718.384 286V178.2H736.584V200.2L733.984 196.8C736.651 190 740.918 184.8 746.784 181.2C752.651 177.6 759.251 175.8 766.584 175.8C774.984 175.8 782.518 178.133 789.184 182.8C795.984 187.467 800.651 193.6 803.184 201.2L797.984 201.4C800.784 193 805.518 186.667 812.184 182.4C818.851 178 826.251 175.8 834.384 175.8C841.851 175.8 848.584 177.533 854.584 181C860.718 184.467 865.584 189.267 869.184 195.4C872.784 201.533 874.584 208.467 874.584 216.2V286H855.784V222.2C855.784 216.2 854.718 211.133 852.584 207C850.451 202.867 847.518 199.667 843.784 197.4C840.184 195 835.918 193.8 830.984 193.8C826.184 193.8 821.851 195 817.984 197.4C814.251 199.667 811.251 202.933 808.984 207.2C806.851 211.333 805.784 216.333 805.784 222.2V286H786.984V222.2C786.984 216.2 785.918 211.133 783.784 207C781.651 202.867 778.718 199.667 774.984 197.4C771.384 195 767.118 193.8 762.184 193.8C757.384 193.8 753.051 195 749.184 197.4C745.451 199.667 742.451 202.933 740.184 207.2C738.051 211.333 736.984 216.333 736.984 222.2V286H718.384ZM901.002 286V178.2H919.602V286H901.002ZM901.002 161V137H919.602V161H901.002ZM1034.66 326V263L1037.66 266.2C1033.93 273.267 1028.46 278.733 1021.26 282.6C1014.2 286.467 1006.26 288.4 997.463 288.4C987.329 288.4 978.196 285.933 970.063 281C962.063 276.067 955.729 269.333 951.063 260.8C946.396 252.267 944.063 242.733 944.063 232.2C944.063 221.4 946.396 211.8 951.063 203.4C955.729 194.867 962.063 188.133 970.063 183.2C978.196 178.267 987.329 175.8 997.463 175.8C1006.4 175.8 1014.33 177.733 1021.26 181.6C1028.2 185.333 1033.66 190.4 1037.66 196.8L1035.26 201.4V178.2H1053.46V326H1034.66ZM999.063 270.4C1005.86 270.4 1011.93 268.733 1017.26 265.4C1022.6 262.067 1026.8 257.533 1029.86 251.8C1033.06 245.933 1034.66 239.4 1034.66 232.2C1034.66 224.867 1033.06 218.333 1029.86 212.6C1026.8 206.733 1022.6 202.133 1017.26 198.8C1011.93 195.467 1005.86 193.8 999.063 193.8C992.396 193.8 986.329 195.533 980.863 199C975.529 202.333 971.329 206.867 968.263 212.6C965.196 218.2 963.663 224.733 963.663 232.2C963.663 239.4 965.196 245.933 968.263 251.8C971.329 257.533 975.529 262.067 980.863 265.4C986.196 268.733 992.263 270.4 999.063 270.4Z" fill="black"/>
</svg>
