<svg width="205" height="218" viewBox="0 0 205 218" fill="none" xmlns="http://www.w3.org/2000/svg">
<title>Tatamiq logo</title>
<path d="M94.2716 31.4706C100.597 28.0637 108.224 28.1265 114.493 31.6373L189.398 73.5919C198.326 78.5929 202.35 89.3018 198.923 98.945L172.496 173.321C170.794 178.11 167.412 182.12 162.979 184.606L113.548 212.325C107.25 215.857 99.579 215.905 93.2368 212.452L42.0572 184.592C37.513 182.118 34.042 178.054 32.3097 173.179L6.0321 99.2261C2.56174 89.4595 6.73602 78.6216 15.8612 73.7064L94.2716 31.4706Z" fill="#FF4F00"/>
<path d="M115.423 137.336C109.51 140.658 102.276 140.576 96.4405 137.123L43.5961 105.851C30.9933 98.393 31.2096 80.0824 43.985 72.9241L94.8159 44.443C100.645 41.1769 107.761 41.2127 113.557 44.5373L167.181 75.2967C179.975 82.6355 179.893 101.119 167.033 108.343L115.423 137.336Z" fill="white"/>
</svg>
